<?xml version="1.0" encoding="UTF-8" standalone="no"?>
<!-- Created with Inkscape (http://www.inkscape.org/) -->

<svg
   xmlns:dc="http://purl.org/dc/elements/1.1/"
   xmlns:cc="http://creativecommons.org/ns#"
   xmlns:rdf="http://www.w3.org/1999/02/22-rdf-syntax-ns#"
   xmlns:svg="http://www.w3.org/2000/svg"
   xmlns="http://www.w3.org/2000/svg"
   xmlns:sodipodi="http://sodipodi.sourceforge.net/DTD/sodipodi-0.dtd"
   xmlns:inkscape="http://www.inkscape.org/namespaces/inkscape"
   version="1.0"
   width="580"
   height="580"
   id="svg2"
   sodipodi:version="0.32"
   inkscape:version="0.91 r"
   sodipodi:docname="memorial.svg"
   inkscape:output_extension="org.inkscape.output.svg.inkscape">
  <metadata
     id="metadata2975">
    <rdf:RDF>
      <cc:Work
         rdf:about="">
        <dc:format>image/svg+xml</dc:format>
        <dc:type
           rdf:resource="http://purl.org/dc/dcmitype/StillImage" />
        <cc:license
           rdf:resource="http://web.resource.org/cc/PublicDomain" />
        <dc:language>en</dc:language>
        <dc:title />
      </cc:Work>
    </rdf:RDF>
  </metadata>
  <sodipodi:namedview
     inkscape:window-height="739"
     inkscape:window-width="1332"
     inkscape:pageshadow="2"
     inkscape:pageopacity="0.0"
     guidetolerance="10.0"
     gridtolerance="10.0"
     objecttolerance="10.0"
     borderopacity="1.0"
     bordercolor="#666666"
     pagecolor="#ffffff"
     id="base"
     inkscape:zoom="0.081465518"
     inkscape:cx="-545.0314"
     inkscape:cy="507.84103"
     inkscape:window-x="34"
     inkscape:window-y="1024"
     inkscape:current-layer="svg2"
     showgrid="false"
     inkscape:window-maximized="1" />
  <defs
     id="defs4">
    <inkscape:perspective
       sodipodi:type="inkscape:persp3d"
       inkscape:vp_x="0 : 290 : 1"
       inkscape:vp_y="0 : 1000 : 0"
       inkscape:vp_z="580 : 290 : 1"
       inkscape:persp3d-origin="290 : 193.33333 : 1"
       id="perspective2441" />
    <inkscape:perspective
       id="perspective3452"
       inkscape:persp3d-origin="30 : 20 : 1"
       inkscape:vp_z="60 : 30 : 1"
       inkscape:vp_y="0 : 1000 : 0"
       inkscape:vp_x="0 : 30 : 1"
       sodipodi:type="inkscape:persp3d" />
    <symbol
       viewBox="244.5 110 489 219.9"
       id="symbol-university">
      <path
         id="path4460"
         d="M79,43l57,119c0,0,21-96,104-96s124,106,124,106l43-133l82-17L0,17L79,43z" />
      <path
         id="path4462"
         d="M94,176l-21,39"
         stroke-width="20"
         stroke="#000000"
         fill="none" />
      <path
         id="path4464"
         d="M300,19c0,10.5-22.6,19-50.5,19S199,29.5,199,19s22.6-19,50.5-19S300,8.5,300,19z" />
      <path
         id="path4466"
         d="M112,216l-16-38L64,88c0,0-9-8-4-35s16-24,16-24"
         stroke-width="20"
         stroke="#000000"
         ill="none" />
    </symbol>
    <inkscape:perspective
       id="perspective4471"
       inkscape:persp3d-origin="372.04724 : 350.78739 : 1"
       inkscape:vp_z="744.09448 : 526.18109 : 1"
       inkscape:vp_y="0 : 1000 : 0"
       inkscape:vp_x="0 : 526.18109 : 1"
       sodipodi:type="inkscape:persp3d" />
    <inkscape:perspective
       id="perspective4668"
       inkscape:persp3d-origin="6 : 4 : 1"
       inkscape:vp_z="12 : 6 : 1"
       inkscape:vp_y="0 : 1000 : 0"
       inkscape:vp_x="0 : 6 : 1"
       sodipodi:type="inkscape:persp3d" />
    <inkscape:perspective
       id="perspective4904"
       inkscape:persp3d-origin="16 : 10.666667 : 1"
       inkscape:vp_z="32 : 16 : 1"
       inkscape:vp_y="0 : 1000 : 0"
       inkscape:vp_x="0 : 16 : 1"
       sodipodi:type="inkscape:persp3d" />
    <marker
       style="overflow:visible;"
       id="Arrow2Lend"
       refX="0.0"
       refY="0.0"
       orient="auto"
       inkscape:stockid="Arrow2Lend">
      <path
         transform="scale(1.1) rotate(180) translate(1,0)"
         d="M 8.7185878,4.0337352 L -2.2072895,0.016013256 L 8.7185884,-4.0017078 C 6.9730900,-1.6296469 6.9831476,1.6157441 8.7185878,4.0337352 z "
         style="font-size:12.0;fill-rule:evenodd;stroke-width:0.62500000;stroke-linejoin:round;"
         id="path4137" />
    </marker>
    <marker
       style="overflow:visible;"
       id="Arrow1Mend"
       refX="0.0"
       refY="0.0"
       orient="auto"
       inkscape:stockid="Arrow1Mend">
      <path
         transform="scale(0.4) rotate(180) translate(10,0)"
         style="fill-rule:evenodd;stroke:#000000;stroke-width:1.0pt;marker-start:none;"
         d="M 0.0,0.0 L 5.0,-5.0 L -12.5,0.0 L 5.0,5.0 L 0.0,0.0 z "
         id="path4125" />
    </marker>
    <marker
       style="overflow:visible"
       id="TriangleOutL"
       refX="0.0"
       refY="0.0"
       orient="auto"
       inkscape:stockid="TriangleOutL">
      <path
         transform="scale(0.8)"
         style="fill-rule:evenodd;stroke:#000000;stroke-width:1.0pt;marker-start:none"
         d="M 5.77,0.0 L -2.88,5.0 L -2.88,-5.0 L 5.77,0.0 z "
         id="path4214" />
    </marker>
    <marker
       style="overflow:visible;"
       id="Arrow1Lend"
       refX="0.0"
       refY="0.0"
       orient="auto"
       inkscape:stockid="Arrow1Lend">
      <path
         transform="scale(0.8) rotate(180) translate(12.5,0)"
         style="fill-rule:evenodd;stroke:#000000;stroke-width:1.0pt;marker-start:none;"
         d="M 0.0,0.0 L 5.0,-5.0 L -12.5,0.0 L 5.0,5.0 L 0.0,0.0 z "
         id="path4119" />
    </marker>
    <marker
       style="overflow:visible"
       id="Tail"
       refX="0.0"
       refY="0.0"
       orient="auto"
       inkscape:stockid="Tail">
      <g
         transform="scale(-1.2)"
         id="g4152">
        <path
           style="fill:none;fill-rule:evenodd;stroke:#000000;stroke-width:0.8;marker-start:none;marker-end:none;stroke-linecap:round"
           d="M -3.8048674,-3.9585227 L 0.54352094,0"
           id="path4154" />
        <path
           style="fill:none;fill-rule:evenodd;stroke:#000000;stroke-width:0.8;marker-start:none;marker-end:none;stroke-linecap:round"
           d="M -1.2866832,-3.9585227 L 3.0617053,0"
           id="path4156" />
        <path
           style="fill:none;fill-rule:evenodd;stroke:#000000;stroke-width:0.8;marker-start:none;marker-end:none;stroke-linecap:round"
           d="M 1.3053582,-3.9585227 L 5.6537466,0"
           id="path4158" />
        <path
           style="fill:none;fill-rule:evenodd;stroke:#000000;stroke-width:0.8;marker-start:none;marker-end:none;stroke-linecap:round"
           d="M -3.8048674,4.1775838 L 0.54352094,0.21974226"
           id="path4160" />
        <path
           style="fill:none;fill-rule:evenodd;stroke:#000000;stroke-width:0.8;marker-start:none;marker-end:none;stroke-linecap:round"
           d="M -1.2866832,4.1775838 L 3.0617053,0.21974226"
           id="path4162" />
        <path
           style="fill:none;fill-rule:evenodd;stroke:#000000;stroke-width:0.8;marker-start:none;marker-end:none;stroke-linecap:round"
           d="M 1.3053582,4.1775838 L 5.6537466,0.21974226"
           id="path4164" />
      </g>
    </marker>
    <marker
       style="overflow:visible"
       id="Arrow1Sstart"
       refX="0.0"
       refY="0.0"
       orient="auto"
       inkscape:stockid="Arrow1Sstart">
      <path
         transform="scale(0.2) translate(6,0)"
         style="fill-rule:evenodd;stroke:#000000;stroke-width:1.0pt;marker-start:none"
         d="M 0.0,0.0 L 5.0,-5.0 L -12.5,0.0 L 5.0,5.0 L 0.0,0.0 z "
         id="path4128" />
    </marker>
    <marker
       style="overflow:visible;"
       id="Arrow1Send"
       refX="0.0"
       refY="0.0"
       orient="auto"
       inkscape:stockid="Arrow1Send">
      <path
         transform="scale(0.2) rotate(180) translate(6,0)"
         style="fill-rule:evenodd;stroke:#000000;stroke-width:1.0pt;marker-start:none;"
         d="M 0.0,0.0 L 5.0,-5.0 L -12.5,0.0 L 5.0,5.0 L 0.0,0.0 z "
         id="path4131" />
    </marker>
    <marker
       style="overflow:visible"
       id="SemiCircleOut"
       refX="0.0"
       refY="0.0"
       orient="auto"
       inkscape:stockid="SemiCircleOut">
      <path
         transform="scale(0.6) translate(7.125493,0.763446)"
         style="fill-rule:evenodd;stroke:#000000;stroke-width:1.0pt;marker-start:none;marker-end:none"
         d="M -2.5,-0.80913858 C -2.5,1.9508614 -4.7400000,4.1908614 -7.5,4.1908614 L -7.5,-5.8091386 C -4.7400000,-5.8091386 -2.5,-3.5691386 -2.5,-0.80913858 z "
         id="path4235" />
    </marker>
    <marker
       style="overflow:visible;"
       id="Arrow2Send"
       refX="0.0"
       refY="0.0"
       orient="auto"
       inkscape:stockid="Arrow2Send">
      <path
         transform="scale(0.3) rotate(180) translate(-2.3,0)"
         d="M 8.7185878,4.0337352 L -2.2072895,0.016013256 L 8.7185884,-4.0017078 C 6.9730900,-1.6296469 6.9831476,1.6157441 8.7185878,4.0337352 z "
         style="font-size:12.0;fill-rule:evenodd;stroke-width:0.62500000;stroke-linejoin:round;"
         id="path4149" />
    </marker>
    <marker
       style="overflow:visible"
       id="TriangleOutS"
       refX="0.0"
       refY="0.0"
       orient="auto"
       inkscape:stockid="TriangleOutS">
      <path
         transform="scale(0.2)"
         style="fill-rule:evenodd;stroke:#000000;stroke-width:1.0pt;marker-start:none"
         d="M 5.77,0.0 L -2.88,5.0 L -2.88,-5.0 L 5.77,0.0 z "
         id="path4220" />
    </marker>
    <marker
       style="overflow:visible"
       id="CurveIn"
       refX="0.0"
       refY="0.0"
       orient="auto"
       inkscape:stockid="CurveIn">
      <path
         transform="scale(0.6)"
         style="fill-rule:evenodd;stroke:#000000;stroke-width:1.0pt;marker-start:none;marker-end:none;fill:none"
         d="M 4.6254930,-5.0456926 C 1.8654930,-5.0456926 -0.37450702,-2.8056926 -0.37450702,-0.045692580 C -0.37450702,2.7143074 1.8654930,4.9543074 4.6254930,4.9543074"
         id="path4238" />
    </marker>
    <marker
       orient="auto"
       refY="0"
       refX="0"
       id="InfiniteLineStart"
       inkscape:stockid="InfiniteLineStart"
       style="overflow:visible">
      <g
         transform="translate(-13,0)"
         id="g4298">
        <circle
           cx="3"
           cy="0"
           r="0.8"
           id="circle4300" />
        <circle
           cx="6.5"
           cy="0"
           r="0.8"
           id="circle4302" />
        <circle
           cx="10"
           cy="0"
           r="0.8"
           id="circle4304" />
      </g>
    </marker>
    <marker
       style="overflow:visible"
       id="StopS"
       refX="0.0"
       refY="0.0"
       orient="auto"
       inkscape:stockid="StopS">
      <path
         transform="scale(0.2)"
         style="fill:none;fill-opacity:0.75000000;fill-rule:evenodd;stroke:#000000;stroke-width:1.0pt"
         d="M 0.0,5.65 L 0.0,-5.65"
         id="path4229" />
    </marker>
    <marker
       style="overflow:visible"
       id="Arrow2Sstart"
       refX="0.0"
       refY="0.0"
       orient="auto"
       inkscape:stockid="Arrow2Sstart">
      <path
         transform="scale(0.3) translate(-2.3,0)"
         d="M 8.7185878,4.0337352 L -2.2072895,0.016013256 L 8.7185884,-4.0017078 C 6.9730900,-1.6296469 6.9831476,1.6157441 8.7185878,4.0337352 z "
         style="font-size:12.0;fill-rule:evenodd;stroke-width:0.62500000;stroke-linejoin:round"
         id="path4146" />
    </marker>
    <marker
       style="overflow:visible"
       id="DiamondS"
       refX="0.0"
       refY="0.0"
       orient="auto"
       inkscape:stockid="DiamondS">
      <path
         transform="scale(0.2)"
         style="fill-rule:evenodd;stroke:#000000;stroke-width:1.0pt;marker-start:none"
         d="M 0,-7.0710768 L -7.0710894,0 L 0,7.0710589 L 7.0710462,0 L 0,-7.0710768 z "
         id="path4202" />
    </marker>
    <marker
       orient="auto"
       refY="0"
       refX="0"
       id="RazorWire"
       inkscape:stockid="RazorWire">
       style=&quot;overflow:visible&quot;&gt;
      <path
   d="M 0.022727273,-0.74009011 L 0.022727273,0.69740989 L -7.7585227,3.0099099 L 10.678977,3.0099099 L 3.4914773,0.69740989 L 3.4914773,-0.74009011 L 10.741477,-2.8963401 L -7.7272727,-2.8963401 L 0.022727273,-0.74009011 z "
   style="fill:#808080;fill-opacity:1;fill-rule:evenodd;stroke:#000000;stroke-width:0.1pt"
   transform="scale(0.8,0.8)"
   id="path4286" />
</marker>
    <inkscape:perspective
       id="perspective5233"
       inkscape:persp3d-origin="16 : 10.666667 : 1"
       inkscape:vp_z="32 : 16 : 1"
       inkscape:vp_y="0 : 1000 : 0"
       inkscape:vp_x="0 : 16 : 1"
       sodipodi:type="inkscape:persp3d" />
    <inkscape:perspective
       id="perspective5412"
       inkscape:persp3d-origin="250 : 166.66667 : 1"
       inkscape:vp_z="500 : 250 : 1"
       inkscape:vp_y="0 : 1000 : 0"
       inkscape:vp_x="0 : 250 : 1"
       sodipodi:type="inkscape:persp3d" />
    <inkscape:perspective
       id="perspective5571"
       inkscape:persp3d-origin="202.85715 : 136.19048 : 1"
       inkscape:vp_z="405.71429 : 204.28572 : 1"
       inkscape:vp_y="0 : 1000 : 0"
       inkscape:vp_x="0 : 204.28572 : 1"
       sodipodi:type="inkscape:persp3d" />
    <inkscape:perspective
       id="perspective6552"
       inkscape:persp3d-origin="64 : 42.666667 : 1"
       inkscape:vp_z="128 : 64 : 1"
       inkscape:vp_y="0 : 1000 : 0"
       inkscape:vp_x="0 : 64 : 1"
       sodipodi:type="inkscape:persp3d" />
  </defs>
  <g
     id="g1327">
    <path
       d="M 66.275,1.768 C 24.94,1.768 1.704,23.139 1.704,66.804 L 1.704,516.927 C 1.704,557.771 22.599,579.156 63.896,579.156 L 515.92,579.156 C 557.227,579.156 578.149,558.841 578.149,516.927 L 578.149,66.804 C 578.149,24.203 557.227,1.768 514.628,1.768 C 514.624,1.768 66.133,1.625 66.275,1.768 z "
       style="fill:#111;stroke:#eee;stroke-width:3.40799999"
       id="path1329" />
  </g>
  <path
     style="color:#000000;font-style:normal;font-variant:normal;font-weight:normal;font-stretch:normal;font-size:medium;line-height:normal;font-family:'Bitstream Vera Sans';-inkscape-font-specification:'Bitstream Vera Sans';text-indent:0;text-align:start;text-decoration:none;text-decoration-line:none;letter-spacing:normal;word-spacing:normal;text-transform:none;direction:ltr;block-progression:tb;writing-mode:lr-tb;text-anchor:start;display:inline;overflow:visible;visibility:visible;opacity:1;fill:#ffffff;fill-opacity:1;stroke:none;stroke-width:35;marker:none;enable-background:accumulate"
     d="m 186.7691,49.384766 c -35.46431,0 -60.56598,31.491682 -60.56598,46.819637 l 0,433.555367 c 0.0584,1.44453 327.64835,0.78554 327.59376,0 l 0,-433.555367 c 0,-15.327955 -27.4345,-46.819637 -60.59722,-46.819637 z m 132.40273,71.885444 c 5.80055,0 10.34409,2.30083 13.63107,6.902 3.28698,4.60116 4.93094,10.95433 4.93094,19.06222 0,8.08554 -1.64396,14.43078 -4.93094,19.03194 -3.28698,4.60117 -7.83052,6.89896 -13.63107,6.89896 -5.78445,0 -10.32798,-2.29779 -13.63108,-6.89896 -3.28698,-4.60116 -4.93094,-10.9464 -4.93094,-19.03194 0,-8.10789 1.64396,-14.46106 4.93094,-19.06222 3.3031,-4.60117 7.84663,-6.902 13.63108,-6.902 z m -178.02942,0.90514 9.30503,0 0,29.98431 c 0,4.13211 0.48327,7.09189 1.45003,8.87876 0.98286,1.76452 2.57938,2.64576 4.78681,2.64576 2.22355,0 3.81787,-0.88124 4.78464,-2.64576 0.98287,-1.78687 1.47404,-4.746 1.47404,-8.87876 l 0,-29.98431 9.30503,0 0,29.98431 c 0,7.08043 -1.28152,12.35201 -3.84343,15.81405 -2.56191,3.46203 -6.46755,5.19162 -11.72028,5.19162 -5.23661,0 -9.13653,-1.72959 -11.69844,-5.19162 -2.56191,-3.46204 -3.84343,-8.73362 -3.84343,-15.81405 z m 40.21844,0 10.39254,0 13.12226,34.30714 0,-34.30714 8.82242,0 0,50.01826 -10.39255,0 -13.12444,-34.30714 0,34.30714 -8.82023,0 z m 41.47192,0 9.30502,0 0,18.25697 13.41489,-18.25697 10.80309,0 -17.37624,23.68474 19.16475,26.33352 -11.64822,0 -14.35827,-19.69792 0,19.69792 -9.30502,0 z m 38.38188,0 10.39256,0 13.12224,34.30714 0,-34.30714 8.82243,0 0,50.01826 -10.39255,0 -13.12445,-34.30714 0,34.30714 -8.82023,0 z m 80.45871,0 8.9185,0 6.23466,36.35049 6.18661,-36.35049 8.96655,0 6.1888,36.35049 6.23465,-36.35049 8.84644,0 -8.50796,50.01826 -10.73102,0 -6.54913,-38.02454 -6.47704,38.02454 -10.73104,0 z m 57.69076,0 10.39254,0 13.12444,34.30714 0,-34.30714 8.82024,0 0,50.01826 -10.39255,0 -13.12226,-34.30714 0,34.30714 -8.82241,0 z m -80.19229,8.44282 c -2.83583,0 -5.03642,1.44946 -6.59934,4.35311 -1.56293,2.90364 -2.34319,6.99192 -2.34319,12.26315 0,5.24889 0.78026,9.3262 2.34319,12.22984 1.56292,2.90366 3.76351,4.35613 6.59934,4.35613 2.85194,0 5.05825,-1.45247 6.62118,-4.35613 1.56292,-2.90364 2.34536,-6.98095 2.34536,-12.22984 0,-5.27123 -0.78244,-9.35951 -2.34536,-12.26315 -1.56293,-2.90365 -3.76924,-4.35311 -6.62118,-4.35311 z M 275,206.98242 l 30,0 0,47.0625 52.51953,0 0,30 -52.51953,0 0,101.62305 -30,0 0,-101.62305 -52.51953,0 0,-30 52.51953,0 z m -17.61099,222.75026 c 4.3241,0 7.61141,1.23406 9.86122,3.7068 2.24981,2.44779 3.37575,6.04637 3.37575,10.79206 0,3.17212 -0.55905,5.81862 -1.67599,7.94171 -1.10097,2.12306 -2.73679,3.69829 -4.90682,4.72237 2.42533,1.04903 4.25128,2.75914 5.4799,5.13196 1.24457,2.3479 1.86844,5.31992 1.86844,8.91666 0,5.54496 -1.18076,9.74218 -3.54226,12.5896 -2.34554,2.82244 -5.83298,4.2315 -10.46024,4.2315 -4.64323,0 -8.15416,-1.40906 -10.53161,-4.2315 -2.36151,-2.84742 -3.54226,-7.04464 -3.54226,-12.5896 0,-3.59674 0.61604,-6.56876 1.84466,-8.91666 1.24456,-2.37282 3.07835,-4.08293 5.50368,-5.13196 -2.17003,-1.02408 -3.80585,-2.59931 -4.90682,-4.72237 -1.10097,-2.12309 -1.65003,-4.76959 -1.65003,-7.94171 0,-4.72072 1.12376,-8.3193 3.37358,-10.79206 2.2498,-2.47274 5.55279,-3.7068 9.9088,-3.7068 z m 88.55638,0 c 4.32411,0 7.61141,1.23406 9.86123,3.7068 2.2498,2.44779 3.37573,6.04637 3.37573,10.79206 0,3.17212 -0.55905,5.81862 -1.67598,7.94171 -1.10097,2.12306 -2.73679,3.69829 -4.90682,4.72237 2.42533,1.04903 4.25128,2.75914 5.4799,5.13196 1.24458,2.3479 1.86844,5.31992 1.86844,8.91666 0,5.54496 -1.18075,9.74218 -3.54225,12.5896 -2.34555,2.82244 -5.83299,4.2315 -10.46025,4.2315 -4.64322,0 -8.15416,-1.40906 -10.53161,-4.2315 -2.3615,-2.84742 -3.54226,-7.04464 -3.54226,-12.5896 0,-3.59674 0.61604,-6.56876 1.84465,-8.91666 1.24458,-2.37282 3.07836,-4.08293 5.5037,-5.13196 -2.17003,-1.02408 -3.80586,-2.59931 -4.90683,-4.72237 -1.10097,-2.12309 -1.65003,-4.76959 -1.65003,-7.94171 0,-4.72072 1.12377,-8.3193 3.37358,-10.79206 2.24981,-2.47274 5.55278,-3.7068 9.9088,-3.7068 z m 68.16571,0 c 4.69109,0 8.31167,2.52053 10.86464,7.56595 2.55298,5.02045 3.82987,12.17744 3.82987,21.46901 0,9.26658 -1.27689,16.42358 -3.82987,21.46899 -2.55297,5.02045 -6.17355,7.52871 -10.86464,7.52871 -4.70705,0 -8.33763,-2.50826 -10.8906,-7.52871 -2.55297,-5.04541 -3.82987,-12.20241 -3.82987,-21.46899 0,-9.29157 1.2769,-16.44856 3.82987,-21.46901 2.55297,-5.04542 6.18355,-7.56595 10.8906,-7.56595 z m -188.12231,0.0745 c 1.64348,0 3.23798,0.19954 4.78573,0.59917 1.54773,0.39965 3.07958,0.99829 4.59542,1.79755 l 0,10.34183 c -1.51584,-1.12399 -2.94371,-1.95008 -4.28401,-2.47459 -1.34032,-0.5495 -2.64854,-0.8226 -3.92503,-0.8226 -2.74445,0 -4.88234,1.19726 -6.41412,3.59509 -1.53179,2.37284 -2.42626,5.90674 -2.68157,10.60247 1.05311,-1.22389 2.1947,-2.13579 3.42332,-2.73524 1.22862,-0.62443 2.56818,-0.93432 4.02018,-0.93432 3.65394,0 6.598,1.6733 8.83185,5.02026 2.24981,3.34697 3.37574,7.73146 3.37574,13.15155 0,5.99455 -1.2534,10.80267 -3.75851,14.42439 -2.50511,3.59672 -5.86291,5.39262 -10.07532,5.39262 -4.64322,0 -8.24247,-2.44695 -10.79544,-7.34251 -2.53702,-4.92054 -3.80609,-11.89023 -3.80609,-20.90706 0,-9.24162 1.48486,-16.49669 4.45269,-21.76691 2.98379,-5.2952 7.06943,-7.9417 12.25516,-7.9417 z m -74.07811,0.93431 8.76048,0 0,45.97116 8.13767,0 0,9.96607 -24.98608,0 0,-9.96607 8.13767,0 0,-36.15404 -8.35392,2.69802 0,-9.81713 z m 23.52854,0 26.9259,0 0,8.13128 -13.92898,47.80595 -8.97674,0 13.18721,-45.33137 -17.20739,0 z m 133.19355,0 8.76049,0 0,45.97116 8.13767,0 0,9.96607 -24.98825,0 0,-9.96607 8.13767,0 0,-36.15404 -8.35394,2.69802 0,-9.81713 z m 70.8451,0 10.244,0 0,35.2942 5.09713,0 0,10.45355 -5.09713,0 0,10.18948 -8.71292,0 0,-10.18948 -15.84498,0 0,-12.3628 z m -122.08886,8.05681 c -1.46796,0 -2.59956,0.59864 -3.39736,1.79754 -0.78186,1.19891 -1.17427,2.89675 -1.17427,5.09474 0,2.22299 0.39241,3.93646 1.17427,5.13536 0.7978,1.19893 1.9294,1.79755 3.39736,1.79755 1.43605,0 2.54631,-0.59862 3.32816,-1.79755 0.78185,-1.1989 1.1721,-2.91237 1.1721,-5.13536 0,-2.22299 -0.39025,-3.9208 -1.1721,-5.09474 -0.78185,-1.1989 -1.89211,-1.79754 -3.32816,-1.79754 z m 88.55638,0 c -1.46797,0 -2.59956,0.59864 -3.39736,1.79754 -0.78186,1.19891 -1.17427,2.89675 -1.17427,5.09474 0,2.22299 0.39241,3.93646 1.17427,5.13536 0.7978,1.19893 1.92939,1.79755 3.39736,1.79755 1.43605,0 2.54631,-0.59862 3.32817,-1.79755 0.78184,-1.1989 1.1721,-2.91237 1.1721,-5.13536 0,-2.22299 -0.39026,-3.9208 -1.1721,-5.09474 -0.78186,-1.1989 -1.89212,-1.79754 -3.32817,-1.79754 z m 68.16571,0.78537 c -1.97856,0 -3.39077,1.43697 -4.23643,4.30936 -0.84568,2.84744 -1.26943,7.76925 -1.26943,14.76291 0,7.06859 0.42375,12.05172 1.26943,14.94909 0.84566,2.89738 2.25787,4.34662 4.23643,4.34661 1.9626,1e-5 3.36481,-1.44923 4.21048,-4.34661 0.84567,-2.89737 1.26942,-7.8805 1.26942,-14.94909 0,-6.99366 -0.42375,-11.91547 -1.26942,-14.76291 -0.82971,-2.87239 -2.23193,-4.30936 -4.21048,-4.30936 z m -33.10215,3.03653 -10.0991,23.41549 10.0991,0 z m -157.03132,16.44873 c -1.61157,0 -2.82365,0.82268 -3.63741,2.47122 -0.7978,1.62348 -1.19805,4.07049 -1.19805,7.34251 0,3.27204 0.40025,5.73464 1.19805,7.38315 0.81376,1.62353 2.02584,2.43397 3.63741,2.43397 1.62752,0 2.8396,-0.81044 3.6374,-2.43397 0.81377,-1.64851 1.22185,-4.11111 1.22185,-7.38315 0,-3.27202 -0.40808,-5.71901 -1.22185,-7.34251 -0.7978,-1.64852 -2.00988,-2.47122 -3.6374,-2.47122 z m 53.08625,0.0745 15.02972,0 0,10.90038 -15.02972,0 z m -19.67487,2.50845 c -1.72326,0 -3.04715,0.73688 -3.9726,2.21054 -0.92545,1.47366 -1.38836,3.58622 -1.38836,6.33374 0,2.74749 0.46291,4.85667 1.38836,6.33033 0.92545,1.44869 2.24934,2.17332 3.9726,2.17332 1.7073,0 3.01553,-0.72463 3.92502,-2.17332 0.9095,-1.47366 1.36457,-3.58284 1.36457,-6.33033 0,-2.77249 -0.45507,-4.88505 -1.36457,-6.33374 -0.90949,-1.47366 -2.21772,-2.21054 -3.92502,-2.21054 z m 88.55638,0 c -1.72326,0 -3.04715,0.73688 -3.9726,2.21054 -0.92546,1.47366 -1.38836,3.58622 -1.38836,6.33374 0,2.74749 0.4629,4.85667 1.38836,6.33033 0.92545,1.44869 2.24934,2.17332 3.9726,2.17332 1.7073,0 3.01553,-0.72463 3.92503,-2.17332 0.9095,-1.47366 1.36456,-3.58284 1.36456,-6.33033 0,-2.77249 -0.45506,-4.88505 -1.36456,-6.33374 -0.9095,-1.47366 -2.21773,-2.21054 -3.92503,-2.21054 z"
     id="rect3812"
     inkscape:connector-curvature="0"
     sodipodi:nodetypes="ssccsssssssscscsccscscsccsssssccccccccccccccccccccccccccccccccccccccccccccccccccccccccccccssssssssscccccccccccccscscccscscsccssssscscccscscsccssssscscscscssscccscccscscscscsccccccccccccccccccccccccccccccccccccccccccccscscssscsscscssscsscsscsscsccccscscscscscccccssscscscsssscscscs" />
</svg>
